HIERARCHY
ROOT Hips
{
	OFFSET -0.001795 -0.223333 0.028219
	CHANNELS 6 Xposition Yposition Zposition Zrotation Yrotation Xrotation 
	JOINT LeftUpLeg
	{
		OFFSET 0.069520 -0.091406 -0.006815
		CHANNELS 3 Zrotation Yrotation Xrotation
		JOINT LeftLeg
		{
			OFFSET 0.034277 -0.375199 -0.004496
			CHANNELS 3 Zrotation Yrotation Xrotation
			JOINT LeftFoot
			{
				OFFSET -0.013596 -0.397961 -0.043693
				CHANNELS 3 Zrotation Yrotation Xrotation
				JOINT LeftToe
				{
					OFFSET 0.026358 -0.055791 0.119288
					CHANNELS 3 Zrotation Yrotation Xrotation
					End Site
					{
						OFFSET 0.000000 0.000000 0.000000
					}
				}
			}
		}
	}
	JOINT RightUpLeg
	{
		OFFSET -0.067670 -0.090522 -0.004320
		CHANNELS 3 Zrotation Yrotation Xrotation
		JOINT RightLeg
		{
			OFFSET -0.038290 -0.382569 -0.008850
			CHANNELS 3 Zrotation Yrotation Xrotation
			JOINT RightFoot
			{
				OFFSET 0.015774 -0.398415 -0.042312
				CHANNELS 3 Zrotation Yrotation Xrotation
				JOINT RightToe
				{
					OFFSET -0.025372 -0.048144 0.123348
					CHANNELS 3 Zrotation Yrotation Xrotation
					End Site
					{
						OFFSET 0.000000 0.000000 0.000000
					}
				}
			}
		}
	}
	JOINT Spine
	{
		OFFSET -0.002533 0.108963 -0.026696
		CHANNELS 3 Zrotation Yrotation Xrotation
		JOINT Spine1
		{
			OFFSET 0.005487 0.135180 0.001092
			CHANNELS 3 Zrotation Yrotation Xrotation
			JOINT Spine2
			{
				OFFSET 0.001457 0.052922 0.025425
				CHANNELS 3 Zrotation Yrotation Xrotation
				JOINT Neck
				{
					OFFSET -0.002778 0.213870 -0.042857
					CHANNELS 3 Zrotation Yrotation Xrotation
					JOINT Head
					{
						OFFSET 0.005152 0.064970 0.051349
						CHANNELS 3 Zrotation Yrotation Xrotation
						End Site
						{
							OFFSET 0.000000 0.000000 0.000000
						}
					}
				}
				JOINT LeftShoulder
				{
					OFFSET 0.078845 0.121749 -0.034090
					CHANNELS 3 Zrotation Yrotation Xrotation
					JOINT LeftArm
					{
						OFFSET 0.090977 0.030469 -0.008868
						CHANNELS 3 Zrotation Yrotation Xrotation
						JOINT LeftForeArm
						{
							OFFSET 0.259612 -0.012772 -0.027456
							CHANNELS 3 Zrotation Yrotation Xrotation
							JOINT LeftHand
							{
								OFFSET 0.249234 0.008986 -0.001171
								CHANNELS 3 Zrotation Yrotation Xrotation
								End Site
								{
									OFFSET 0.000000 0.000000 0.000000
								}
							}
						}
					}
				}
				JOINT RightShoulder
				{
					OFFSET -0.081759 0.118833 -0.038615
					CHANNELS 3 Zrotation Yrotation Xrotation
					JOINT RightArm
					{
						OFFSET -0.096012 0.032551 -0.009143
						CHANNELS 3 Zrotation Yrotation Xrotation
						JOINT RightForeArm
						{
							OFFSET -0.253742 -0.013329 -0.021401
							CHANNELS 3 Zrotation Yrotation Xrotation
							JOINT RightHand
							{
								OFFSET -0.255298 0.007772 -0.005559
								CHANNELS 3 Zrotation Yrotation Xrotation
								End Site
								{
									OFFSET 0.000000 0.000000 0.000000
								}
							}
						}
					}
				}
			}
		}
	}
}
MOTION
Frames: 15
Frame Time: 0.050000
0.000000 0.942411 0.000000 0.800579 -4.047548 9.623702 5.493631 -0.430978 -6.589461 -0.883431 0.180340 -3.069322 -2.923057 1.525511 18.705177 0.000000 0.000000 0.000000 -4.678076 0.654854 -6.713062 -8.493669 0.169335 -5.834167 -0.477053 -7.826547 16.386906 0.000000 0.000000 0.000000 4.950250 0.331410 -5.982996 -3.824397 1.644673 -6.213885 -3.776613 5.163461 5.854461 3.194449 -1.144887 -10.100378 0.000000 0.000000 0.000000 -15.039172 2.842285 -3.443807 -55.222633 -6.534215 -3.638166 -4.829567 -14.060588 1.043191 0.000000 0.000000 0.000000 13.081732 -8.986308 -4.959448 65.559030 3.731863 -4.036647 3.153702 18.154536 1.175490 0.000000 0.000000 0.000000 
0.000080 0.941774 0.000553 0.849870 -4.311218 10.567866 5.554811 -0.430205 -6.362397 -1.129721 0.256625 -5.154595 -2.862766 1.688794 19.110036 0.000000 0.000000 0.000000 -4.694786 0.737534 -7.831577 -8.680507 0.183934 -5.720095 -0.426656 -7.760223 16.301671 0.000000 0.000000 0.000000 6.206060 0.421737 -6.842560 -4.710094 1.981860 -6.644113 -4.889599 5.547371 5.513781 1.934416 -0.133121 -11.185191 0.000000 0.000000 0.000000 -15.640491 3.799626 -4.098489 -53.978400 -6.621519 -3.458324 -4.648453 -13.774528 0.989219 0.000000 0.000000 0.000000 12.976224 -10.648097 -5.706502 66.851760 2.640062 -4.609285 3.407678 18.495116 1.250438 0.000000 0.000000 0.000000 
0.000077 0.941820 0.000806 1.382145 -4.168941 10.392254 4.898480 -0.473177 -6.893779 -0.975189 0.213195 -3.993062 -2.933369 1.584203 19.006124 0.000000 0.000000 0.000000 -5.294917 0.736647 -7.975120 -8.640760 0.258010 -5.062761 -0.609456 -7.956735 15.997113 0.000000 0.000000 0.000000 6.056746 0.405027 -6.694683 -4.996667 2.083022 -7.089865 -5.274745 4.728727 5.577013 1.695164 -0.137625 -10.166906 0.000000 0.000000 0.000000 -15.068689 3.249136 -3.598189 -54.129608 -6.427052 -3.585954 -4.144314 -12.941340 0.888688 0.000000 0.000000 0.000000 13.781502 -9.833833 -5.525013 65.749766 2.072166 -4.992134 3.975086 18.710838 1.326817 0.000000 0.000000 0.000000 
0.000021 0.942083 0.000950 1.697585 -3.849526 10.904756 5.118998 -0.488941 -7.190130 -1.881729 0.296023 -4.610311 -3.221585 1.380003 19.508813 0.000000 0.000000 0.000000 -5.541221 0.763218 -8.444228 -8.795525 0.267233 -5.063156 -0.803969 -8.277610 16.160666 0.000000 0.000000 0.000000 6.047723 0.431837 -7.103296 -5.249234 2.208270 -6.458573 -5.624022 4.000921 4.382332 0.540141 0.515057 -9.187641 0.000000 0.000000 0.000000 -15.264996 4.062312 -3.981497 -54.265440 -7.138946 -3.145148 -2.907017 -12.262930 0.714431 0.000000 0.000000 0.000000 12.837050 -10.403280 -5.721632 66.412180 1.408767 -5.279586 4.627146 19.482363 1.461313 0.000000 0.000000 0.000000 
-0.000091 0.942601 0.001005 1.995820 -3.535195 10.614076 4.602418 -0.502784 -7.097341 -1.486684 0.259972 -4.347690 -3.435550 1.170505 19.625608 0.000000 0.000000 0.000000 -5.687278 0.749498 -8.381812 -9.036710 0.353783 -4.467617 -0.988640 -8.524375 16.095509 0.000000 0.000000 0.000000 5.862988 0.402580 -6.828369 -5.010753 2.119739 -6.409529 -6.124990 3.704433 4.367905 0.092532 0.883449 -9.943627 0.000000 0.000000 0.000000 -15.139414 3.669101 -3.768134 -54.278600 -7.674119 -2.906577 -3.022397 -11.726211 0.694945 0.000000 0.000000 0.000000 12.761957 -10.490886 -5.751621 66.328050 1.429201 -5.257331 4.632025 19.463355 1.460212 0.000000 0.000000 0.000000 
-0.000251 0.943017 0.001069 2.209076 -3.246967 10.741156 4.561009 -0.504880 -7.013448 -1.748821 0.289053 -4.854304 -3.684147 0.984943 19.989858 0.000000 0.000000 0.000000 -5.815560 0.738574 -8.251533 -9.162853 0.323609 -4.804581 -1.109591 -8.744490 16.342974 0.000000 0.000000 0.000000 5.750726 0.401324 -6.896905 -5.080411 2.140014 -6.755108 -6.361628 3.533133 4.467608 -0.262807 1.119901 -9.901631 0.000000 0.000000 0.000000 -15.602193 3.816704 -3.927040 -53.931037 -8.003889 -2.735628 -2.533060 -11.657544 0.642732 0.000000 0.000000 0.000000 12.596793 -10.574655 -5.759687 66.636904 1.053565 -5.490283 4.613331 19.851401 1.492926 0.000000 0.000000 0.000000 
-0.000452 0.943256 0.001040 2.343094 -3.056803 10.576908 4.340219 -0.505265 -6.879822 -1.566775 0.275545 -4.847178 -3.815300 0.859744 20.068312 0.000000 0.000000 0.000000 -5.832076 0.725618 -8.106234 -9.329747 0.353250 -4.659710 -1.203900 -8.877980 16.356193 0.000000 0.000000 0.000000 5.703771 0.391142 -6.793711 -5.002849 2.115830 -6.664431 -6.634389 3.198268 4.430619 -0.271668 1.161195 -10.513593 0.000000 0.000000 0.000000 -15.702104 3.671375 -3.842573 -53.945855 -8.019218 -2.726447 -2.514662 -11.541036 0.637690 0.000000 0.000000 0.000000 12.651859 -10.594187 -5.800984 66.740629 0.876473 -5.617683 4.541490 20.483733 1.529687 0.000000 0.000000 0.000000 
-0.000672 0.943493 0.000970 2.459074 -2.660783 10.664104 4.187012 -0.521414 -7.017448 -1.414801 0.265017 -4.907197 -4.044711 0.644411 20.194214 0.000000 0.000000 0.000000 -5.895901 0.720645 -8.113468 -9.350672 0.361886 -4.625204 -1.404473 -9.178496 16.462477 0.000000 0.000000 0.000000 5.668975 0.391332 -6.864414 -4.948395 2.098736 -6.671496 -6.964042 3.036714 4.291667 -0.604090 1.376480 -10.338825 0.000000 0.000000 0.000000 -15.667626 3.409271 -3.738274 -53.804606 -8.106638 -2.661711 -2.452021 -11.644656 0.634218 0.000000 0.000000 0.000000 12.565517 -10.803567 -5.870949 67.034684 0.505492 -5.816286 4.431132 21.081208 1.567974 0.000000 0.000000 0.000000 
-0.000937 0.943812 0.000815 2.613907 -2.564705 10.580264 3.984382 -0.527356 -7.014263 -1.312104 0.255517 -4.815254 -4.131980 0.582786 20.317228 0.000000 0.000000 0.000000 -6.023598 0.714334 -8.081495 -9.372247 0.380451 -4.492832 -1.459297 -9.258551 16.478757 0.000000 0.000000 0.000000 5.631939 0.381838 -6.765802 -4.961940 2.096227 -7.004357 -7.084119 3.070810 4.459000 -0.741998 1.498811 -10.634089 0.000000 0.000000 0.000000 -15.627420 3.214784 -3.651264 -53.754879 -8.215319 -2.626996 -2.663341 -11.407001 0.640888 0.000000 0.000000 0.000000 12.517474 -10.861759 -5.875741 66.947972 0.371646 -5.891373 4.459906 21.573314 1.623020 0.000000 0.000000 0.000000 
-0.001258 0.944078 0.000693 2.782762 -2.289205 10.503737 3.836221 -0.535181 -7.050329 -1.289782 0.250752 -4.713490 -4.311406 0.420731 20.439183 0.000000 0.000000 0.000000 -6.139658 0.702570 -7.985041 -9.404836 0.397454 -4.391276 -1.604191 -9.465629 16.513897 0.000000 0.000000 0.000000 5.676434 0.378374 -6.733011 -5.061442 2.135204 -7.146529 -7.333766 3.009672 4.574578 -1.032038 1.710970 -10.758168 0.000000 0.000000 0.000000 -15.616212 2.857953 -3.499766 -53.607287 -8.411965 -2.538859 -2.620413 -11.251966 0.626196 0.000000 0.000000 0.000000 12.572449 -10.787050 -5.830448 67.078005 0.207808 -5.992903 4.258754 22.089892 1.642395 0.000000 0.000000 0.000000 
-0.001613 0.944194 0.000580 2.874801 -2.150415 10.468260 3.810057 -0.533019 -6.980575 -1.355626 0.257598 -4.827584 -4.417510 0.334749 20.550533 0.000000 0.000000 0.000000 -6.248499 0.695574 -7.922981 -9.323287 0.395683 -4.374203 -1.682415 -9.572308 16.509667 0.000000 0.000000 0.000000 5.701528 0.381964 -6.777719 -5.033947 2.130669 -7.007418 -7.480770 2.957638 4.421618 -1.126009 1.766227 -10.615345 0.000000 0.000000 0.000000 -15.597140 2.738916 -3.455136 -53.617871 -8.453811 -2.504731 -2.661800 -11.232067 0.627281 0.000000 0.000000 0.000000 12.352903 -10.730341 -5.759486 67.244994 0.215812 -5.971302 4.354756 22.275939 1.676025 0.000000 0.000000 0.000000 
-0.001982 0.944245 0.000505 2.907539 -1.870901 10.484329 3.917492 -0.535876 -7.044620 -1.508773 0.267030 -4.831744 -4.575133 0.180774 20.610984 0.000000 0.000000 0.000000 -6.249618 0.688114 -7.843007 -9.291724 0.391269 -4.410013 -1.822227 -9.769792 16.546186 0.000000 0.000000 0.000000 5.710653 0.390411 -6.901374 -4.984593 2.118896 -6.859765 -7.539560 2.863005 4.141758 -0.976301 1.666630 -10.546371 0.000000 0.000000 0.000000 -15.555530 2.690252 -3.448896 -53.677061 -8.287574 -2.553988 -2.542400 -11.278228 0.615616 0.000000 0.000000 0.000000 12.202920 -10.801690 -5.760604 67.375719 0.007856 -6.054625 4.276089 22.366035 1.669357 0.000000 0.000000 0.000000 
-0.002365 0.944366 0.000447 2.831209 -1.725544 10.466710 3.981720 -0.533370 -7.018516 -1.403728 0.260619 -4.880456 -4.647624 0.111367 20.635100 0.000000 0.000000 0.000000 -6.111057 0.681845 -7.719970 -9.311469 0.379418 -4.530003 -1.871088 -9.847667 16.625792 0.000000 0.000000 0.000000 5.748255 0.401253 -7.022464 -4.864041 2.074530 -6.823557 -7.561996 2.996200 4.032049 -0.788167 1.548971 -10.427625 0.000000 0.000000 0.000000 -15.559644 2.586663 -3.442630 -53.684610 -8.241339 -2.565219 -2.598709 -11.219178 0.614231 0.000000 0.000000 0.000000 12.170640 -10.898394 -5.775975 67.440760 -0.111510 -6.091288 4.152817 22.390845 1.658001 0.000000 0.000000 0.000000 
-0.002742 0.944541 0.000376 2.772340 -1.602117 10.414432 4.040292 -0.536660 -7.101118 -1.326749 0.250113 -4.670003 -4.699002 0.056606 20.625643 0.000000 0.000000 0.000000 -5.973360 0.682905 -7.747392 -9.366292 0.408438 -4.328051 -1.927527 -9.924702 16.625256 0.000000 0.000000 0.000000 5.743495 0.413637 -7.159874 -4.798145 2.058632 -6.501787 -7.531071 3.083469 3.692377 -0.423788 1.283250 -9.994779 0.000000 0.000000 0.000000 -15.479782 2.543600 -3.448110 -53.840740 -8.157734 -2.580200 -2.545761 -11.237907 0.605874 0.000000 0.000000 0.000000 12.016388 -10.830171 -5.701205 67.541872 -0.257618 -6.124077 4.153234 22.555794 1.674802 0.000000 0.000000 0.000000 
-0.003110 0.944681 0.000299 2.776220 -1.439380 10.409119 4.057255 -0.542692 -7.197489 -1.289921 0.244102 -4.543816 -4.783299 -0.023420 20.656576 0.000000 0.000000 0.000000 -5.884655 0.675985 -7.627168 -9.455903 0.399674 -4.460405 -1.990597 -10.026251 16.721836 0.000000 0.000000 0.000000 5.714863 0.416828 -7.220300 -4.734296 2.037036 -6.427662 -7.501027 3.171642 3.442002 -0.146129 1.084280 -9.698206 0.000000 0.000000 0.000000 -15.476249 2.632695 -3.531278 -53.817959 -7.978521 -2.635387 -2.639055 -11.301284 0.613844 0.000000 0.000000 0.000000 12.057746 -10.805772 -5.677299 67.507113 -0.313425 -6.104872 4.048815 22.311441 1.639527 0.000000 0.000000 0.000000 
